<svg xmlns="http://www.w3.org/2000/svg" xmlns:xlink="http://www.w3.org/1999/xlink" width="223.7" height="140" viewBox="4026.3 3099 223.7 140"><title></title><style type="text/css">
*[layerid="0"] {stroke:#FFFFFF; fill:#FFFFFF;}
*[layerid="1"] {stroke:#FF0000; fill:#FF0000;}
*[layerid="2"] {stroke:#0000FF; fill:#0000FF;}
*[layerid="3"] {stroke:#FFFF00; fill:#FFFF00;}
*[layerid="4"] {stroke:#808000; fill:#808000;}
*[layerid="5"] {stroke:#808080; fill:#808080;}
*[layerid="6"] {stroke:#800000; fill:#800000;}
*[layerid="7"] {stroke:#800080; fill:#800080;}
*[layerid="8"] {stroke:#AA00FF; fill:#AA00FF;}
*[layerid="9"] {stroke:#6464FF; fill:#6464FF;}
*[layerid="10"] {stroke:#FF00FF; fill:#FF00FF;}
*[layerid="11"] {stroke:#C0C0C0; fill:#C0C0C0;}
*[layerid="12"] {stroke:#FFFFFF; fill:#FFFFFF;}
*[layerid="13"] {stroke:#33CC99; fill:#33CC99;}
*[layerid="14"] {stroke:#5555FF; fill:#5555FF;}
*[layerid="15"] {stroke:#F022F0; fill:#F022F0;}
*[layerid="16"] {stroke:#FFFFFF; fill:#FFFFFF;}
*[layerid="17"] {stroke:#FFFFFF; fill:#FFFFFF;}
*[layerid="18"] {stroke:#FFFFFF; fill:#FFFFFF;}
*[layerid="19"] {stroke:#FFFFFF; fill:#FFFFFF;}
*[layerid="20"] {stroke:#FFFFFF; fill:#FFFFFF;}
*[layerid="21"] {stroke:#800000; fill:#800000;}
*[layerid="22"] {stroke:#008000; fill:#008000;}
*[layerid="23"] {stroke:#00FF00; fill:#00FF00;}
*[layerid="24"] {stroke:#000080; fill:#000080;}
*[fill="none"] {fill: none;}
*[stroke="none"] {stroke: none;}
path, polyline, polygon, line {stroke-linecap:round;}
g[c_partid="part_pad"][layerid="1"] ellipse {fill:#FF0000;}
g[c_partid="part_pad"][layerid="1"]  polygon {fill:#FF0000;}
g[c_partid="part_pad"][layerid="1"]  polyline {stroke:#FF0000;}
g[c_partid="part_pad"][layerid="1"]  circle {fill:#FF0000;}
g[c_partid="part_pad"][layerid="2"]  ellipse {fill:#0000FF;}
g[c_partid="part_pad"][layerid="2"]  polygon {fill:#0000FF;}
g[c_partid="part_pad"][layerid="2"]  polyline {stroke:#0000FF;}
g[c_partid="part_pad"][layerid="2"]  circle {fill:#0000FF;}
g[c_partid="part_pad"][layerid="11"]  ellipse {fill:#C0C0C0;}
g[c_partid="part_pad"][layerid="11"]  polygon {fill:#C0C0C0;}
g[c_partid="part_pad"][layerid="11"]  polyline {stroke:#C0C0C0;}
g[c_partid="part_pad"][layerid="11"]  circle {fill:#C0C0C0;}
g[c_partid="part_pad"][layerid] > * + circle {fill: #222222;}
g[c_partid="part_pad"][layerid] > * + polyline {stroke:#222222;}
g[c_partid="part_via"][layerid] > * + circle {fill: #222222;}path, polyline, polygon {stroke-linejoin:round;}
rect, circle, ellipse, polyline, line, polygon, path {shape-rendering:crispEdges;}
</style>
<rect x="4026.3" y="3099" width="223.7" height="140" fill="#000000" stroke="none"/><g id="g1" cpara="" c_transformList="" importFlag="0" xmlns="http://www.w3.org/2000/svg"><path d="M4063.1563,3220 4063.2167,3219.9203 4063.6707,3219.1773 4064.0485,3218.3927 4064.3464,3217.5745 4064.5612,3216.7307 4064.691,3215.8697 4064.7344,3215 4064.691,3214.1303 4064.5612,3213.2693 4064.3464,3212.4255 4064.0485,3211.6073 4063.6707,3210.8227 4063.2167,3210.0797 4063.1342,3209.9708 4063.3667,3209.9417 4064.2156,3209.7479 4065.041,3209.4706 4065.8347,3209.1125 4066.5888,3208.6771 4067.2958,3208.1688 4067.9487,3207.5927 4068.5409,3206.9544 4069.0667,3206.2603 4069.5207,3205.5173 4069.8985,3204.7327 4070.1964,3203.9145 4070.4112,3203.0707 4070.541,3202.2097 4070.5844,3201.34 4070.541,3200.4703 4070.4112,3199.6093 4070.1964,3198.7655 4069.8985,3197.9473 4069.5207,3197.1627 4069.0667,3196.4197 4068.5409,3195.7256 4067.9487,3195.0873 4067.2958,3194.5112 4066.5888,3194.0029 4065.8347,3193.5675 4065.041,3193.2094 4064.2156,3192.9321 4063.3667,3192.7383 4062.5027,3192.63 4061.6322,3192.6083 4060.7639,3192.6734 4059.9064,3192.8246 4059.0682,3193.0604 4058.2577,3193.3785 4057.4828,3193.7758 4056.7513,3194.2482 4056.0706,3194.7911 4055.4472,3195.3991 4054.8875,3196.0661 4054.397,3196.7856 4053.9806,3197.5503 4053.6423,3198.3527 4053.3857,3199.1847 4053.2132,3200.0382 4053.1265,3200.9046 4053.1265,3201.7754 4053.2132,3202.6418 4053.3857,3203.4953 4053.6423,3204.3273 4053.9806,3205.1297 4054.397,3205.8944 4054.7196,3206.3677 4054.0564,3206.4846 4053.2182,3206.7204 4052.4077,3207.0385 4051.6328,3207.4358 4050.9013,3207.9082 4050.8792,3207.9258 4050.1223,3132.2345 4050.6328,3132.5642 4051.4077,3132.9615 4052.2182,3133.2796 4053.0564,3133.5154 4053.9139,3133.6666 4054.7822,3133.7317 4055.6527,3133.71 4056.5167,3133.6017 4057.3656,3133.4079 4058.191,3133.1306 4058.9847,3132.7725 4059.7388,3132.3371 4060.4458,3131.8288 4061.0987,3131.2527 4061.6909,3130.6144 4062.2167,3129.9203 4062.6707,3129.1773 4063.0485,3128.3927 4063.3464,3127.5745 4063.5612,3126.7307 4063.691,3125.8697 4063.7344,3125 4063.691,3124.1303 4063.5612,3123.2693 4063.3464,3122.4255 4063.0485,3121.6073 4062.6707,3120.8227 4062.2167,3120.0797 4062.1562,3119.9998 4074.969,3119.9998 4074.9502,3120.0443 4074.921,3120.109 4074.8958,3120.1733 4074.8692,3120.2363 4074.8454,3120.3016 4074.8206,3120.3649 4074.799,3120.4291 4074.7916,3120.4494 4074.7239,3120.5077 4074.6366,3120.5868 4074.5512,3120.668 4074.468,3120.7512 4074.3868,3120.8366 4074.3077,3120.9239 4074.2309,3121.0132 4074.1563,3121.1044 4074.084,3121.1974 4074.0141,3121.2922 4073.9465,3121.3887 4073.8814,3121.4868 4073.8187,3121.5865 4073.7585,3121.6878 4073.7009,3121.7905 4073.6459,3121.8947 4073.5935,3122.0002 4073.5437,3122.1069 4073.4966,3122.2149 4073.4522,3122.324 4073.4105,3122.4342 4073.3716,3122.5453 4073.3355,3122.6575 4073.3022,3122.7704 4073.2717,3122.8842 4073.2441,3122.9987 4073.2193,3123.1139 4073.1974,3123.2296 4073.1784,3123.3459 4073.1623,3123.4626 4073.1491,3123.5796 4073.1388,3123.6969 4073.1315,3123.8145 4073.1271,3123.9322 4073.1256,3124.05 4073.1256,3132.55 4073.1271,3132.6678 4073.1315,3132.7855 4073.1388,3132.9031 4073.1491,3133.0204 4073.1623,3133.1374 4073.1784,3133.2541 4073.1974,3133.3704 4073.2193,3133.4861 4073.2441,3133.6013 4073.2717,3133.7158 4073.3022,3133.8296 4073.3355,3133.9425 4073.3716,3134.0547 4073.4105,3134.1658 4073.4522,3134.276 4073.4966,3134.3851 4073.5437,3134.4931 4073.5935,3134.5998 4073.6459,3134.7053 4073.7009,3134.8095 4073.7585,3134.9122 4073.8187,3135.0135 4073.8814,3135.1132 4073.9465,3135.2113 4074.0141,3135.3078 4074.084,3135.4026 4074.1563,3135.4956 4074.2309,3135.5868 4074.3077,3135.6761 4074.3868,3135.7634 4074.468,3135.8488 4074.5512,3135.932 4074.6366,3136.0132 4074.7239,3136.0923 4074.8132,3136.1691 4074.9044,3136.2437 4074.9974,3136.316 4075.0922,3136.3859 4075.1887,3136.4535 4075.2868,3136.5186 4075.3865,3136.5813 4075.4878,3136.6415 4075.5905,3136.6991 4075.6947,3136.7541 4075.8002,3136.8065 4075.9069,3136.8563 4076.0149,3136.9034 4076.124,3136.9478 4076.2342,3136.9895 4076.3453,3137.0284 4076.4575,3137.0645 4076.5704,3137.0978 4076.6842,3137.1283 4076.7987,3137.1559 4076.9139,3137.1807 4077.0296,3137.2026 4077.1459,3137.2216 4077.2626,3137.2377 4077.3796,3137.2509 4077.4969,3137.2612 4077.6145,3137.2685 4077.7322,3137.2729 4077.85,3137.2744 4082.15,3137.2744 4082.2678,3137.2729 4082.3855,3137.2685 4082.5031,3137.2612 4082.6204,3137.2509 4082.7374,3137.2377 4082.8541,3137.2216 4082.9704,3137.2026 4083.0861,3137.1807 4083.2013,3137.1559 4083.3158,3137.1283 4083.4296,3137.0978 4083.5425,3137.0645 4083.6547,3137.0284 4083.7658,3136.9895 4083.8091,3136.9731 4083.811,3136.977 4083.8566,3137.0669 4083.9037,3137.156 4083.9524,3137.2443 4084.0026,3137.3318 4084.0542,3137.4184 4084.1073,3137.5041 4084.1619,3137.5889 4084.2179,3137.6727 4084.2754,3137.7556 4084.3342,3137.8375 4084.3945,3137.9183 4084.4561,3137.9981 4084.519,3138.0769 4084.5833,3138.1546 4084.6489,3138.2311 4084.7159,3138.3065 4084.784,3138.3808 4084.8535,3138.4539 4084.9242,3138.5258 4088.4199,3142.0215 4088.4199,3143.9769 4088.4047,3143.9716 4088.2925,3143.9355 4088.1796,3143.9022 4088.0658,3143.8717 4087.9513,3143.8441 4087.8361,3143.8193 4087.7204,3143.7974 4087.6041,3143.7784 4087.4874,3143.7623 4087.3704,3143.7491 4087.2531,3143.7388 4087.1355,3143.7315 4087.0178,3143.7271 4086.9,3143.7256 4073.1,3143.7256 4072.9822,3143.7271 4072.8645,3143.7315 4072.7469,3143.7388 4072.6296,3143.7491 4072.5126,3143.7623 4072.3959,3143.7784 4072.2796,3143.7974 4072.1639,3143.8193 4072.0487,3143.8441 4071.9342,3143.8717 4071.8204,3143.9022 4071.7075,3143.9355 4071.5953,3143.9716 4071.4842,3144.0105 4071.374,3144.0522 4071.2649,3144.0966 4071.1569,3144.1437 4071.0502,3144.1935 4070.9447,3144.2459 4070.8405,3144.3009 4070.7378,3144.3585 4070.6365,3144.4187 4070.5368,3144.4814 4070.4387,3144.5465 4070.3422,3144.6141 4070.2474,3144.684 4070.1544,3144.7563 4070.0632,3144.8309 4069.9739,3144.9077 4069.8866,3144.9868 4069.8012,3145.068 4069.718,3145.1512 4069.6368,3145.2366 4069.5577,3145.3239 4069.4809,3145.4132 4069.4063,3145.5044 4069.334,3145.5974 4069.2641,3145.6922 4069.1965,3145.7887 4069.1314,3145.8868 4069.0687,3145.9865 4069.0085,3146.0878 4068.9509,3146.1905 4068.8959,3146.2947 4068.8435,3146.4002 4068.7937,3146.5069 4068.7466,3146.6149 4068.7022,3146.724 4068.6605,3146.8342 4068.6216,3146.9453 4068.5855,3147.0575 4068.5522,3147.1704 4068.5217,3147.2842 4068.4941,3147.3987 4068.4693,3147.5139 4068.4474,3147.6296 4068.4284,3147.7459 4068.4123,3147.8626 4068.3991,3147.9796 4068.3888,3148.0969 4068.3815,3148.2145 4068.3771,3148.3322 4068.3756,3148.45 4068.3756,3151.4319 4068.1487,3151.1873 4067.4958,3150.6112 4066.7888,3150.1029 4066.0347,3149.6675 4065.241,3149.3094 4064.4156,3149.0321 4063.5667,3148.8383 4062.7027,3148.73 4061.8322,3148.7083 4060.9639,3148.7734 4060.1064,3148.9246 4059.2682,3149.1604 4058.4577,3149.4785 4057.6828,3149.8758 4056.9513,3150.3482 4056.2706,3150.8911 4055.6472,3151.4991 4055.0875,3152.1661 4054.597,3152.8856 4054.1806,3153.6503 4053.8423,3154.4527 4053.5857,3155.2847 4053.4132,3156.1382 4053.3265,3157.0046 4053.3265,3157.8754 4053.4132,3158.7418 4053.5857,3159.5953 4053.8423,3160.4273 4054.1806,3161.2297 4054.597,3161.9944 4055.0875,3162.7139 4055.6472,3163.3809 4056.2706,3163.9889 4056.9513,3164.5318 4057.6828,3165.0042 4058.4577,3165.4015 4059.2682,3165.7196 4060.1064,3165.9554 4060.9639,3166.1066 4061.8322,3166.1717 4062.7027,3166.15 4063.5667,3166.0417 4064.4156,3165.8479 4065.241,3165.5706 4066.0347,3165.2125 4066.7888,3164.7771 4067.4958,3164.2688 4068.1487,3163.6927 4068.7409,3163.0544 4069.2667,3162.3603 4069.7207,3161.6173 4070.0985,3160.8327 4070.1645,3160.6515 4070.2474,3160.716 4070.3422,3160.7859 4070.4387,3160.8535 4070.5368,3160.9186 4070.6365,3160.9813 4070.7378,3161.0415 4070.8405,3161.0991 4070.9447,3161.1541 4071.0502,3161.2065 4071.1569,3161.2563 4071.2649,3161.3034 4071.374,3161.3478 4071.4842,3161.3895 4071.5953,3161.4284 4071.7075,3161.4645 4071.8204,3161.4978 4071.9342,3161.5283 4072.0487,3161.5559 4072.1639,3161.5807 4072.2796,3161.6026 4072.3959,3161.6216 4072.5126,3161.6377 4072.6296,3161.6509 4072.7469,3161.6612 4072.8645,3161.6685 4072.9822,3161.6729 4073.1,3161.6744 4085.044,3161.6744 4081.0758,3165.6426 4080.7683,3165.6656 4080.0089,3165.7995 4079.2667,3166.0084 4078.5489,3166.29 4077.8628,3166.6418 4077.2151,3167.0601 4076.6123,3167.5409 4076.0603,3168.0793 4075.5647,3168.6699 4075.1303,3169.307 4074.7615,3169.9842 4074.462,3170.6947 4074.2348,3171.4315 4074.082,3172.1872 4074.0052,3172.9545 4074.0052,3173.7255 4074.082,3174.4928 4074.2348,3175.2485 4074.462,3175.9853 4074.7615,3176.6958 4075.1225,3177.3586 4074.9615,3177.6542 4074.8834,3177.8395 4074.1848,3177.6047 4073.4331,3177.4331 4072.668,3177.3372 4071.8972,3177.318 4071.1283,3177.3756 4070.3689,3177.5095 4069.6267,3177.7184 4068.9089,3178 4068.2228,3178.3518 4067.5751,3178.7701 4066.9723,3179.2509 4066.4203,3179.7893 4065.9247,3180.3799 4065.4903,3181.017 4065.1215,3181.6942 4064.822,3182.4047 4064.5948,3183.1415 4064.442,3183.8972 4064.3652,3184.6645 4064.3652,3185.4355 4064.442,3186.2028 4064.5948,3186.9585 4064.822,3187.6953 4065.1215,3188.4058 4065.4903,3189.083 4065.9247,3189.7201 4066.4203,3190.3107 4066.9723,3190.8491 4067.5751,3191.3299 4068.2228,3191.7482 4068.9089,3192.1 4069.6267,3192.3816 4070.3689,3192.5905 4071.1283,3192.7244 4071.8972,3192.782 4072.0241,3192.7788 4087.1486,3207.9034 4087.2172,3207.9708 4087.287,3208.0371 4087.3579,3208.1021 4087.4299,3208.1658 4087.5031,3208.2283 4087.5773,3208.2895 4087.6526,3208.3494 4087.7289,3208.4079 4087.8062,3208.4651 4087.8846,3208.521 4087.9638,3208.5755 4088.044,3208.6286 4088.1252,3208.6803 4088.2072,3208.7305 4088.2901,3208.7794 4088.3738,3208.8267 4088.4584,3208.8726 4088.5437,3208.917 4088.6298,3208.96 4088.7166,3209.0014 4088.8041,3209.0413 4088.8924,3209.0796 4088.9812,3209.1164 4089.0707,3209.1517 4089.1608,3209.1854 4089.2515,3209.2175 4089.3428,3209.248 4089.4345,3209.277 4089.5267,3209.3043 4089.6194,3209.33 4089.7126,3209.3541 4089.8061,3209.3765 4089.9,3209.3974 4089.9943,3209.4165 4090.0889,3209.4341 4090.1838,3209.4499 4090.2789,3209.4642 4090.3743,3209.4767 4090.4699,3209.4876 4090.5656,3209.4968 4090.6615,3209.5044 4090.7575,3209.5102 4090.8536,3209.5144 4090.9498,3209.517 4091.046,3209.5178 4100.0957,3209.5178 4100.3903,3209.8051 4100.9931,3210.2859 4101.6408,3210.7042 4102.3269,3211.056 4103.0447,3211.3376 4103.7869,3211.5465 4104.5463,3211.6804 4105.3152,3211.738 4106.086,3211.7188 4106.8511,3211.6229 4107.6028,3211.4513 4108.3337,3211.2057 4109.0365,3210.8886 4109.7043,3210.5031 4110.3303,3210.053 4110.9084,3209.5428 4111.4329,3208.9776 4111.8985,3208.3629 4112.3005,3207.705 4112.6351,3207.0103 4112.8988,3206.2858 4113.089,3205.5385 4113.204,3204.7761 4113.2424,3204.006 4113.204,3203.2359 4113.089,3202.4735 4112.8988,3201.7262 4112.6351,3201.0017 4112.3005,3200.307 4111.8985,3199.6491 4111.4329,3199.0344 4111.4065,3199.006 4111.4329,3198.9776 4111.8985,3198.3629 4112.3005,3197.705 4112.6351,3197.0103 4112.8988,3196.2858 4113.089,3195.5385 4113.204,3194.7761 4113.2424,3194.006 4113.204,3193.2359 4113.089,3192.4735 4112.8988,3191.7262 4112.6351,3191.0017 4112.3005,3190.307 4111.8985,3189.6491 4111.4329,3189.0344 4111.4065,3189.006 4111.4329,3188.9776 4111.8985,3188.3629 4112.3005,3187.705 4112.6351,3187.0103 4112.8988,3186.2858 4113.089,3185.5385 4113.204,3184.7761 4113.2424,3184.006 4113.204,3183.2359 4113.089,3182.4735 4112.8988,3181.7262 4112.6351,3181.0017 4112.3005,3180.307 4111.8985,3179.6491 4111.4329,3179.0344 4111.4065,3179.006 4111.4329,3178.9776 4111.8985,3178.3629 4112.3005,3177.705 4112.6351,3177.0103 4112.8988,3176.2858 4113.089,3175.5385 4113.204,3174.7761 4113.2424,3174.006 4113.204,3173.2359 4113.089,3172.4735 4112.8988,3171.7262 4112.6351,3171.0017 4112.3005,3170.307 4111.8985,3169.6491 4111.4329,3169.0344 4111.4065,3169.006 4111.4329,3168.9776 4111.8985,3168.3629 4112.3005,3167.705 4112.6351,3167.0103 4112.8988,3166.2858 4113.089,3165.5385 4113.204,3164.7761 4113.2424,3164.006 4113.204,3163.2359 4113.089,3162.4735 4112.8988,3161.7262 4112.6351,3161.0017 4112.3005,3160.307 4111.8985,3159.6491 4111.4329,3159.0344 4111.4065,3159.006 4111.4329,3158.9776 4111.8985,3158.3629 4112.3005,3157.705 4112.6351,3157.0103 4112.8988,3156.2858 4113.089,3155.5385 4113.204,3154.7761 4113.2424,3154.006 4113.204,3153.2359 4113.089,3152.4735 4112.8988,3151.7262 4112.6351,3151.0017 4112.3005,3150.307 4111.8985,3149.6491 4111.4329,3149.0344 4111.4065,3149.006 4111.4329,3148.9776 4111.8985,3148.3629 4112.3005,3147.705 4112.6351,3147.0103 4112.8988,3146.2858 4113.089,3145.5385 4113.204,3144.7761 4113.2424,3144.006 4113.204,3143.2359 4113.089,3142.4735 4112.8988,3141.7262 4112.6351,3141.0017 4112.3005,3140.307 4111.8985,3139.6491 4111.653,3139.325 4112.8084,3139.325 4116.2417,3142.7583 4116.3094,3142.8248 4116.3783,3142.89 4116.4483,3142.954 4116.5194,3143.0168 4116.5917,3143.0783 4116.665,3143.1385 4116.7394,3143.1973 4116.8148,3143.2549 4116.8913,3143.3111 4116.9687,3143.3659 4117.0471,3143.4193 4117.1265,3143.4713 4117.2068,3143.5218 4117.2879,3143.571 4117.3699,3143.6187 4117.4528,3143.6649 4117.5365,3143.7096 4117.6209,3143.7528 4117.7061,3143.7945 4117.7921,3143.8347 4117.8787,3143.8733 4117.966,3143.9104 4118.054,3143.9459 4118.1426,3143.9799 4118.2318,3144.0122 4118.3215,3144.043 4118.4118,3144.0722 4118.5026,3144.0997 4118.5939,3144.1256 4118.6856,3144.1499 4118.7777,3144.1725 4118.8702,3144.1935 4118.9631,3144.2129 4119.0563,3144.2306 4119.1498,3144.2466 4119.2436,3144.2609 4119.3376,3144.2736 4119.4319,3144.2845 4119.5263,3144.2938 4119.6208,3144.3015 4119.7155,3144.3074 4119.8103,3144.3116 4119.9051,3144.3142 4120,3144.315 4165.46,3144.315 4165.556,3144.3141 4165.6519,3144.3115 4165.7478,3144.3072 4165.8436,3144.3011 4165.9393,3144.2933 4166.0348,3144.2838 4166.1302,3144.2726 4166.2253,3144.2596 4166.3201,3144.2449 4166.4147,3144.2286 4166.509,3144.2105 4166.6029,3144.1907 4166.6965,3144.1692 4166.7896,3144.146 4166.8823,3144.1211 4166.9746,3144.0946 4167.0664,3144.0664 4167.1576,3144.0366 4167.2483,3144.0051 4167.3384,3143.972 4167.4279,3143.9373 4167.5167,3143.9009 4167.6049,3143.863 4167.6924,3143.8235 4167.7791,3143.7824 4167.8651,3143.7397 4167.9503,3143.6955 4168.0347,3143.6498 4168.1182,3143.6025 4168.2009,3143.5537 4168.2827,3143.5035 4168.3636,3143.4518 4168.4435,3143.3986 4168.5225,3143.344 4168.6004,3143.288 4168.6774,3143.2306 4168.7532,3143.1718 4168.828,3143.1116 4168.9017,3143.0501 4168.9743,3142.9873 4169.0458,3142.9232 4169.116,3142.8578 4169.1851,3142.7912 4169.253,3142.7233 4169.3196,3142.6542 4169.3849,3142.5839 4169.449,3142.5124 4169.5118,3142.4398 4169.5733,3142.366 4169.6334,3142.2912 4169.6922,3142.2153 4169.7495,3142.1383 4169.8055,3142.0604 4169.8601,3141.9814 4169.9132,3141.9014 4169.9649,3141.8205 4170.0151,3141.7387 4170.0638,3141.656 4170.111,3141.5724 4170.1567,3141.488 4170.2009,3141.4028 4170.2435,3141.3168 4170.2845,3141.23 4171.2805,3139.0753 4174.2492,3142.044 4174.1447,3142.0959 4174.0405,3142.1509 4173.9378,3142.2085 4173.8365,3142.2687 4173.7368,3142.3314 4173.6387,3142.3965 4173.5422,3142.4641 4173.4474,3142.534 4173.3544,3142.6063 4173.2632,3142.6809 4173.1739,3142.7577 4173.0866,3142.8368 4173.0012,3142.918 4172.918,3143.0012 4172.8368,3143.0866 4172.7577,3143.1739 4172.6809,3143.2632 4172.6063,3143.3544 4172.534,3143.4474 4172.4641,3143.5422 4172.3965,3143.6387 4172.3314,3143.7368 4172.2687,3143.8365 4172.2085,3143.9378 4172.1509,3144.0405 4172.0959,3144.1447 4172.0435,3144.2502 4171.9937,3144.3569 4171.9466,3144.4649 4171.9022,3144.574 4171.8605,3144.6842 4171.8216,3144.7953 4171.7855,3144.9075 4171.7522,3145.0204 4171.7217,3145.1342 4171.6941,3145.2487 4171.6923,3145.2572 4171.6848,3145.2614 4171.6563,3145.2793 4171.626,3145.2968 4171.5376,3145.3539 4171.4521,3145.4076 4171.4247,3145.4268 4171.3951,3145.4459 4171.3138,3145.5044 4171.227,3145.5652 4171.1989,3145.5871 4171.172,3145.6064 4171.0929,3145.6695 4171.01,3145.7339 4170.9842,3145.7561 4170.9571,3145.7777 4170.8804,3145.8454 4170.8017,3145.9131 4170.7764,3145.9372 4170.751,3145.9596 4170.6773,3146.0315 4170.6026,3146.1026 4168.211,3148.4942 4160.9316,3148.4942 4160.9084,3148.4692 4160.3303,3147.959 4159.7043,3147.5089 4159.0365,3147.1234 4158.3337,3146.8063 4157.6028,3146.5607 4156.8511,3146.3891 4156.086,3146.2932 4155.3152,3146.274 4154.5463,3146.3316 4153.7869,3146.4655 4153.0447,3146.6744 4152.3269,3146.956 4151.6408,3147.3078 4150.9931,3147.7261 4150.3903,3148.2069 4149.8383,3148.7453 4149.3427,3149.3359 4148.9083,3149.973 4148.5395,3150.6502 4148.24,3151.3607 4148.0128,3152.0975 4147.86,3152.8532 4147.7832,3153.6205 4147.7832,3154.3915 4147.86,3155.1588 4148.0128,3155.9145 4148.24,3156.6513 4148.5395,3157.3618 4148.9083,3158.039 4149.3427,3158.6761 4149.6195,3159.006 4149.3427,3159.3359 4148.9083,3159.973 4148.5395,3160.6502 4148.24,3161.3607 4148.0128,3162.0975 4147.86,3162.8532 4147.7832,3163.6205 4147.7832,3164.3915 4147.86,3165.1588 4148.0128,3165.9145 4148.24,3166.6513 4148.5395,3167.3618 4148.9083,3168.039 4149.3427,3168.6761 4149.6195,3169.006 4149.3427,3169.3359 4148.9083,3169.973 4148.5395,3170.6502 4148.24,3171.3607 4148.0128,3172.0975 4147.86,3172.8532 4147.7832,3173.6205 4147.7832,3174.3915 4147.86,3175.1588 4148.0128,3175.9145 4148.24,3176.6513 4148.5395,3177.3618 4148.9083,3178.039 4149.3427,3178.6761 4149.6195,3179.006 4149.3427,3179.3359 4148.9083,3179.973 4148.5395,3180.6502 4148.24,3181.3607 4148.0128,3182.0975 4147.86,3182.8532 4147.7832,3183.6205 4147.7832,3184.3915 4147.86,3185.1588 4148.0128,3185.9145 4148.24,3186.6513 4148.5395,3187.3618 4148.9083,3188.039 4149.2214,3188.4982 4140.914,3188.4982 4140.8178,3188.499 4140.7216,3188.5016 4140.6255,3188.5058 4140.5295,3188.5116 4140.4336,3188.5192 4140.3379,3188.5284 4140.2423,3188.5393 4140.1469,3188.5518 4140.0518,3188.5661 4139.9569,3188.5819 4139.8623,3188.5995 4139.768,3188.6186 4139.6741,3188.6395 4139.5806,3188.6619 4139.4874,3188.686 4139.3947,3188.7117 4139.3025,3188.739 4139.2108,3188.768 4139.1195,3188.7985 4139.0289,3188.8306 4138.9387,3188.8643 4138.8492,3188.8995 4138.7604,3188.9364 4138.6721,3188.9747 4138.5846,3189.0146 4138.4978,3189.056 4138.4117,3189.099 4138.3264,3189.1434 4138.2418,3189.1893 4138.1581,3189.2366 4138.0752,3189.2855 4137.9932,3189.3357 4137.9121,3189.3874 4137.8318,3189.4405 4137.7526,3189.495 4137.6742,3189.5509 4137.5969,3189.6081 4137.5206,3189.6666 4137.4453,3189.7265 4137.3711,3189.7877 4137.2979,3189.8502 4137.2259,3189.9139 4137.155,3189.9789 4137.0852,3190.0451 4137.0166,3190.1126 4131.1752,3195.954 4131.0356,3195.9645 4130.3389,3196.0873 4129.6578,3196.2789 4128.9993,3196.5374 4128.3697,3196.8602 4127.7754,3197.244 4127.2223,3197.6851 4126.7158,3198.1791 4126.2611,3198.721 4125.8625,3199.3056 4125.5242,3199.9269 4125.2494,3200.5788 4125.0408,3201.2549 4124.9007,3201.9483 4124.8302,3202.6523 4124.8302,3203.3597 4124.9007,3204.0637 4125.0408,3204.7571 4125.2494,3205.4332 4125.5242,3206.0851 4125.8625,3206.7064 4126.2611,3207.291 4126.7158,3207.8329 4127.2223,3208.3269 4127.7754,3208.768 4128.3697,3209.1518 4128.9993,3209.4746 4129.6578,3209.7331 4130.3389,3209.9247 4131.0356,3210.0475 4131.7411,3210.1004 4132.4483,3210.0828 4133.1503,3209.9948 4133.84,3209.8374 4134.5107,3209.612 4135.1555,3209.3211 4135.7682,3208.9673 4136.3427,3208.5543 4136.8731,3208.0862 4137.3543,3207.5676 4137.7815,3207.0037 4138.1504,3206.4 4138.4573,3205.7626 4138.6993,3205.0978 4138.8739,3204.4122 4138.9745,3203.7443 4143.197,3199.5218 4150.0998,3199.5218 4150.3903,3199.8051 4150.9931,3200.2859 4151.6408,3200.7042 4152.3269,3201.056 4153.0447,3201.3376 4153.7869,3201.5465 4154.5463,3201.6804 4155.3152,3201.738 4156.086,3201.7188 4156.8511,3201.6229 4157.6028,3201.4513 4158.3337,3201.2057 4159.0365,3200.8886 4159.7043,3200.5031 4160.3303,3200.053 4160.9084,3199.5428 4160.9279,3199.5218 4176.7137,3199.5218 4176.6678,3199.7489 4176.5841,3200.5856 4176.5841,3201.4264 4176.6678,3202.2631 4176.7294,3202.5679 4176.3361,3202.7222 4175.6278,3203.0853 4174.9592,3203.5172 4174.3368,3204.0134 4173.767,3204.5692 4173.2554,3205.179 4172.807,3205.8367 4172.4263,3206.5357 4172.1171,3207.2692 4171.8825,3208.0298 4171.7248,3208.81 4171.6455,3209.602 4171.6455,3210.398 4171.7248,3211.19 4171.8825,3211.9702 4172.1171,3212.7308 4172.4263,3213.4643 4172.807,3214.1633 4173.2554,3214.821 4173.767,3215.4308 4174.3368,3215.9866 4174.9592,3216.4828 4175.6278,3216.9147 4176.3361,3217.2778 4177.0771,3217.5686 4177.8433,3217.7842 4178.6272,3217.9224 4179.4209,3217.9819 4180.2167,3217.9621 4181.0065,3217.8631 4181.7825,3217.686 4182.537,3217.4325 4183.2626,3217.1051 4183.9519,3216.7071 4184.5982,3216.2425 4185.195,3215.7158 4185.7364,3215.1323 4186.217,3214.4978 4186.6321,3213.8186 4186.9774,3213.1014 4187.2497,3212.3534 4187.4461,3211.5821 4187.5647,3210.795 4187.6044,3210 4187.5647,3209.205 4187.5401,3209.042 4188.0894,3208.8574 4188.8559,3208.5115 4189.5841,3208.0911 4190.2668,3207.6003 4190.8972,3207.0439 4191.4691,3206.4275 4191.9768,3205.7573 4192.4153,3205.0398 4192.7801,3204.2822 4193.0677,3203.4921 4193.2752,3202.6772 4193.4005,3201.8458 4193.4424,3201.006 4193.4005,3200.1662 4193.2752,3199.3348 4193.0677,3198.5199 4192.7801,3197.7298 4192.4153,3196.9722 4191.9768,3196.2547 4191.4691,3195.5845 4190.8972,3194.9681 4190.2668,3194.4117 4189.5841,3193.9209 4188.8559,3193.5005 4188.0894,3193.1546 4187.7756,3193.0492 4200.313,3180.5118 4209.4902,3180.5118 4209.4957,3194.6273 4209.4271,3194.682 4208.8251,3195.2692 4208.2847,3195.9133 4207.811,3196.608 4207.4089,3197.3465 4207.0823,3198.1213 4206.8344,3198.9247 4206.6678,3199.7489 4206.5841,3200.5856 4206.5841,3201.4264 4206.6678,3202.2631 4206.8344,3203.0873 4207.0823,3203.8907 4207.4089,3204.6655 4207.811,3205.404 4208.2847,3206.0987 4208.8251,3206.7428 4209.4271,3207.33 4210.0477,3207.8248 4209.9093,3207.9142 4209.2286,3208.4571 4208.6052,3209.0651 4208.0455,3209.7321 4207.555,3210.4516 4207.1386,3211.2163 4206.8003,3212.0187 4206.5437,3212.8507 4206.3712,3213.7042 4206.2845,3214.5706 4206.2845,3215.4414 4206.3712,3216.3078 4206.5437,3217.1613 4206.8003,3217.9933 4207.1386,3218.7957 4207.555,3219.5604 4207.8544,3219.9996z"  layerid="2" stroke-width="0"  /><polyline points="4180 3150 4174.5 3150" stroke-width="1.5748" c_shapetype="line" stroke-linecap="round" fill="none" layerid="2" net="JP1_1" id="gge6399" /><polyline points="4155.508 3154.006 4170.494 3154.006 4174.5 3150" stroke-width="1.5748" c_shapetype="line" stroke-linecap="round" fill="none" layerid="2" net="JP1_1" id="gge6400" /><polyline points="4155.508 3164.006 4175.994 3164.006 4180 3160" stroke-width="1.5748" c_shapetype="line" stroke-linecap="round" fill="none" layerid="2" net="JP1_2" id="gge6401" /><polyline points="4155.508 3174.006 4175.994 3174.006 4180 3170" stroke-width="1.5748" c_shapetype="line" stroke-linecap="round" fill="none" layerid="2" net="JP1_3" id="gge6402" /><polyline points="4155.508 3184.006 4175.994 3184.006 4180 3180" stroke-width="1.5748" c_shapetype="line" stroke-linecap="round" fill="none" layerid="2" net="JP1_4" id="gge6403" /><polyline points="4072.09 3176.98 4052.01 3170.69 4052 3140 4070.9 3128.3" stroke-width="1.5748" c_shapetype="line" stroke-linecap="round" fill="none" layerid="2" net="GND" id="gge6404" /><polyline points="4126.008 3203.006 4126.008 3147.392 4129.3 3144.1" stroke-width="1.5748" c_shapetype="line" stroke-linecap="round" fill="none" layerid="2" net="GND" id="gge6406" /><polyline points="4126 3203 4126 3203 4126.015 3203 4126.008 3203.006" stroke-width="1.5748" c_shapetype="line" stroke-linecap="round" fill="none" layerid="2" net="GND" id="gge6407" /><polyline points="4210 3180 4209 3183 4192.54 3217.85 4171 3218 4169.62 3210" stroke-width="1.5748" c_shapetype="line" stroke-linecap="round" fill="none" layerid="2" net="GND" id="gge6408" /><polyline points="4155.508 3204.006 4163.626 3204.006 4169.62 3210" stroke-width="1.5748" c_shapetype="line" stroke-linecap="round" fill="none" layerid="2" net="GND" id="gge6409" /><polyline points="4155.51 3204.01 4155.46 3203.85 4130 3215 4126.008 3211.008 4126.008 3203.006" stroke-width="1.5748" c_shapetype="line" stroke-linecap="round" fill="none" layerid="2" net="GND" id="gge6410" /><polyline points="4129.3 3144.1 4129.3 3146 4153.514 3146 4155.508 3144.006" stroke-width="1.5748" c_shapetype="line" stroke-linecap="round" fill="none" layerid="2" net="GND" id="gge6411" /><polyline points="4215.38 3175 4198.03 3175 4179.02 3194.01 4155.51 3194.01" stroke-width="1.5748" c_shapetype="line" stroke-linecap="round" fill="none" layerid="2" net="U2_10" id="gge6412" /><polyline points="4216 3175 4216 3165 4210 3160" stroke-width="1.5748" c_shapetype="line" stroke-linecap="round" fill="none" layerid="2" net="U2_10" id="gge6413" /><polyline points="4215.01 3201.01 4216.02 3201.01 4216 3175 4215.38 3175" stroke-width="1.5748" c_shapetype="line" stroke-linecap="round" fill="none" layerid="2" net="U2_10" id="gge6414" /><polyline points="4080 3128.3 4080 3122.25" stroke-width="1.5748" c_shapetype="line" stroke-linecap="round" fill="none" layerid="2" net="U2_10" id="gge6415" /><polyline points="4215.008 3137.006 4200.252 3122.25 4080 3122.25" stroke-width="1.5748" c_shapetype="line" stroke-linecap="round" fill="none" layerid="2" net="U2_10" id="gge6416" /><polyline points="4215.01 3137.01 4210 3142.01 4210 3160" stroke-width="1.5748" c_shapetype="line" stroke-linecap="round" fill="none" layerid="2" net="U2_10" id="gge6417" /><polyline points="4155.51 3194.01 4140.914 3194.01 4131.918 3203.006" stroke-width="1.5748" c_shapetype="line" stroke-linecap="round" fill="none" layerid="2" net="U2_10" id="gge6418" /><polyline points="4186 3137 4186 3136.38 4179.62 3130" stroke-width="1.5748" c_shapetype="line" stroke-linecap="round" fill="none" layerid="2" net="LED1_1" id="gge6419" /><polyline points="4169.62 3130 4170 3130 4210 3170" stroke-width="1.5748" c_shapetype="line" stroke-linecap="round" fill="none" layerid="2" net="U2_1" id="gge6420" /><polyline points="4185.01 3201.01 4185.008 3201.006 4179.62 3210 4179.62 3210" stroke-width="1.5748" c_shapetype="line" stroke-linecap="round" fill="none" layerid="2" net="LED2_1" id="gge6422" /><polyline points="4089.1 3128.3 4089.1 3134.35" stroke-width="1.5748" c_shapetype="line" stroke-linecap="round" fill="none" layerid="2" net="U2_16" id="gge6426" /><polyline points="4072.09 3185.05 4091.046 3204.006 4105.508 3204.006" stroke-width="1.5748" c_shapetype="line" stroke-linecap="round" fill="none" layerid="2" net="U2_8" id="gge6428" /><polyline points="4081.93 3181.01 4092.512 3181.01 4105.508 3194.006" stroke-width="1.5748" c_shapetype="line" stroke-linecap="round" fill="none" layerid="2" net="U2_7" id="gge6429" /><polyline points="4094.325 3139.575 4094.325 3160.745 4081.73 3173.34" stroke-width="2.3622" c_shapetype="line" stroke-linecap="round" fill="none" layerid="2" net="U2_16" id="gge6432" /><polyline points="4072.09 3176.98 4062 3176.98 4062 3186 4090 3214 4123 3214 4126 3204" stroke-width="1.5748" c_shapetype="line" stroke-linecap="round" fill="none" layerid="2" net="GND" id="gge6435" /><polyline points="4089.1 3133.531 4089.1 3134.35 4094.325 3139.575" stroke-width="2.3622" c_shapetype="line" stroke-linecap="round" fill="none" layerid="2" net="U2_16" id="gge6439" /><polyline points="4105.51 3134.01 4115.01 3134.01 4120 3139 4165.46 3139 4169.62 3130" stroke-width="1.1811" c_shapetype="line" stroke-linecap="round" fill="none" layerid="2" net="U2_1" id="gge6567" /><polyline points="4089.1 3128.3 4123.5 3128.3 4129.3 3134.1" stroke-width="2.3622" c_shapetype="line" stroke-linecap="round" fill="none" layerid="2" net="U2_16" id="gge6570" /><polyline points="4129.3 3134.1 4155.414 3134.1 4155.508 3134.006" stroke-width="1.9685" c_shapetype="line" stroke-linecap="round" fill="none" layerid="2" net="U2_16" id="gge6571" /><g xmlns="http://www.w3.org/2000/svg" c_origin="4180,3150" c_para="package`MOLEX-1X4" c_partid="part_import_gge2" id="gge2" c_shapetype="group" c_etype="pinpart" layerid="1" c_rotation="270"><g c_partid="part_pad" c_etype="pinpart" c_origin="4180,3150" layerid="11" number="1" net="JP1_1" plated ="Y" c_shapetype="group" id="gge16" c_rotation="270" c_width="7.4" c_height="7.4" title="JP1_1" c_shape="RECT"><polygon points="4183.7 3146.3 4183.7 3153.7 4176.3 3153.7 4176.3 3146.3" stroke-width="0" /><circle cx="4180" cy="3150" r="2" stroke-width="0" /></g><g c_partid="part_pad" c_etype="pinpart" c_origin="4180,3160" layerid="11" number="2" net="JP1_2" plated ="Y" c_shapetype="group" id="gge19" c_rotation="270" c_width="7.4" c_height="7.4" title="JP1_2" c_shape="ELLIPSE"><ellipse cx="4180" cy="3160" rx="3.7" ry="3.7" stroke-width="0" /><circle cx="4180" cy="3160" r="2" stroke-width="0" /></g><g c_partid="part_pad" c_etype="pinpart" c_origin="4180,3170" layerid="11" number="3" net="JP1_3" plated ="Y" c_shapetype="group" id="gge22" c_rotation="270" c_width="7.4" c_height="7.4" title="JP1_3" c_shape="ELLIPSE"><ellipse cx="4180" cy="3170" rx="3.7" ry="3.7" stroke-width="0" /><circle cx="4180" cy="3170" r="2" stroke-width="0" /></g><g c_partid="part_pad" c_etype="pinpart" c_origin="4180,3180" layerid="11" number="4" net="JP1_4" plated ="Y" c_shapetype="group" id="gge25" c_rotation="270" c_width="7.4" c_height="7.4" title="JP1_4" c_shape="ELLIPSE"><ellipse cx="4180" cy="3180" rx="3.7" ry="3.7" stroke-width="0" /><circle cx="4180" cy="3180" r="2" stroke-width="0" /></g></g><g xmlns="http://www.w3.org/2000/svg" c_origin="4126.0077,3203.0056" c_para="package`CAP-D3.0XF1.5" c_partid="part_import_gge28" id="gge28" c_shapetype="group" c_etype="pinpart" layerid="1" c_rotation="270"><g c_partid="part_pad" c_etype="pinpart" c_origin="4126.01,3203.01" layerid="11" number="2" net="GND" plated ="Y" c_shapetype="group" id="gge36" c_rotation="270" c_width="4.7244" c_height="4.7244" title="GND" c_shape="ELLIPSE"><ellipse cx="4126.01" cy="3203.01" rx="2.3622" ry="2.3622" stroke-width="0" /><circle cx="4126.01" cy="3203.01" r="1.378" stroke-width="0" /></g><g c_partid="part_pad" c_etype="pinpart" c_origin="4131.92,3203.01" layerid="11" number="1" net="U2_10" plated ="Y" c_shapetype="group" id="gge39" c_rotation="270" c_width="4.7244" c_height="4.7244" title="U2_10" c_shape="ELLIPSE"><ellipse cx="4131.92" cy="3203.01" rx="2.3622" ry="2.3622" stroke-width="0" /><circle cx="4131.92" cy="3203.01" r="1.378" stroke-width="0" /></g></g><g xmlns="http://www.w3.org/2000/svg" c_origin="4185.0076,3201.0056" c_para="package`AXIAL-0.3" c_partid="part_import_gge68" id="gge68" c_shapetype="group" c_etype="pinpart" layerid="1" ><g c_partid="part_pad" c_etype="pinpart" c_origin="4185.01,3201.01" layerid="11" number="1" net="LED2_1" plated ="Y" c_shapetype="group" id="gge81" c_rotation="0" c_width="7.4" c_height="7.4" title="LED2_1" c_shape="ELLIPSE"><ellipse cx="4185.01" cy="3201.01" rx="3.7" ry="3.7" stroke-width="0" /><circle cx="4185.01" cy="3201.01" r="1.77" stroke-width="0" /></g><g c_partid="part_pad" c_etype="pinpart" c_origin="4215.01,3201.01" layerid="11" number="2" net="U2_10" plated ="Y" c_shapetype="group" id="gge84" c_rotation="0" c_width="7.4" c_height="7.4" title="U2_10" c_shape="ELLIPSE"><ellipse cx="4215.01" cy="3201.01" rx="3.7" ry="3.7" stroke-width="0" /><circle cx="4215.01" cy="3201.01" r="1.77" stroke-width="0" /></g></g><g xmlns="http://www.w3.org/2000/svg" c_origin="4215.0076,3137.0057" c_para="package`AXIAL-0.3" c_partid="part_import_gge87" id="gge87" c_shapetype="group" c_etype="pinpart" layerid="1" c_rotation="180"><g c_partid="part_pad" c_etype="pinpart" c_origin="4215.01,3137.01" layerid="11" number="1" net="U2_10" plated ="Y" c_shapetype="group" id="gge100" c_rotation="180" c_width="7.4" c_height="7.4" title="U2_10" c_shape="ELLIPSE"><ellipse cx="4215.01" cy="3137.01" rx="3.7" ry="3.7" stroke-width="0" /><circle cx="4215.01" cy="3137.01" r="1.77" stroke-width="0" /></g><g c_partid="part_pad" c_etype="pinpart" c_origin="4185.01,3137.01" layerid="11" number="2" net="LED1_1" plated ="Y" c_shapetype="group" id="gge103" c_rotation="180" c_width="7.4" c_height="7.4" title="LED1_1" c_shape="ELLIPSE"><ellipse cx="4185.01" cy="3137.01" rx="3.7" ry="3.7" stroke-width="0" /><circle cx="4185.01" cy="3137.01" r="1.77" stroke-width="0" /></g></g><g xmlns="http://www.w3.org/2000/svg" c_origin="4100.008,3209.006" c_para="package`GENERIC STEPPER MOTOR DRIVER CARRIER" c_partid="part_import_gge121" id="gge121" c_shapetype="group" c_etype="pinpart" layerid="1" ><g c_partid="part_pad" c_etype="pinpart" c_origin="4155.51,3154.01" layerid="11" number="14" net="JP1_1" plated ="Y" c_shapetype="group" id="gge127" c_rotation="0" c_width="6" c_height="6" title="JP1_1" c_shape="ELLIPSE"><ellipse cx="4155.51" cy="3154.01" rx="3" ry="3" stroke-width="0" /><circle cx="4155.51" cy="3154.01" r="1.5" stroke-width="0" /></g><g c_partid="part_pad" c_etype="pinpart" c_origin="4155.51,3144.01" layerid="11" number="15" net="GND" plated ="Y" c_shapetype="group" id="gge130" c_rotation="0" c_width="6" c_height="6" title="GND" c_shape="ELLIPSE"><ellipse cx="4155.51" cy="3144.01" rx="3" ry="3" stroke-width="0" /><circle cx="4155.51" cy="3144.01" r="1.5" stroke-width="0" /></g><g c_partid="part_pad" c_etype="pinpart" c_origin="4155.51,3134.01" layerid="11" number="16" net="U2_16" plated ="Y" c_shapetype="group" id="gge133" c_rotation="0" c_width="6" c_height="6" title="U2_16" c_shape="ELLIPSE"><ellipse cx="4155.51" cy="3134.01" rx="3" ry="3" stroke-width="0" /><circle cx="4155.51" cy="3134.01" r="1.5" stroke-width="0" /></g><g c_partid="part_pad" c_etype="pinpart" c_origin="4155.51,3164.01" layerid="11" number="13" net="JP1_2" plated ="Y" c_shapetype="group" id="gge136" c_rotation="0" c_width="6" c_height="6" title="JP1_2" c_shape="ELLIPSE"><ellipse cx="4155.51" cy="3164.01" rx="3" ry="3" stroke-width="0" /><circle cx="4155.51" cy="3164.01" r="1.5" stroke-width="0" /></g><g c_partid="part_pad" c_etype="pinpart" c_origin="4155.51,3174.01" layerid="11" number="12" net="JP1_3" plated ="Y" c_shapetype="group" id="gge139" c_rotation="0" c_width="6" c_height="6" title="JP1_3" c_shape="ELLIPSE"><ellipse cx="4155.51" cy="3174.01" rx="3" ry="3" stroke-width="0" /><circle cx="4155.51" cy="3174.01" r="1.5" stroke-width="0" /></g><g c_partid="part_pad" c_etype="pinpart" c_origin="4155.51,3184.01" layerid="11" number="11" net="JP1_4" plated ="Y" c_shapetype="group" id="gge142" c_rotation="0" c_width="6" c_height="6" title="JP1_4" c_shape="ELLIPSE"><ellipse cx="4155.51" cy="3184.01" rx="3" ry="3" stroke-width="0" /><circle cx="4155.51" cy="3184.01" r="1.5" stroke-width="0" /></g><g c_partid="part_pad" c_etype="pinpart" c_origin="4155.51,3194.01" layerid="11" number="10" net="U2_10" plated ="Y" c_shapetype="group" id="gge145" c_rotation="0" c_width="6" c_height="6" title="U2_10" c_shape="ELLIPSE"><ellipse cx="4155.51" cy="3194.01" rx="3" ry="3" stroke-width="0" /><circle cx="4155.51" cy="3194.01" r="1.5" stroke-width="0" /></g><g c_partid="part_pad" c_etype="pinpart" c_origin="4155.51,3204.01" layerid="11" number="9" net="GND" plated ="Y" c_shapetype="group" id="gge148" c_rotation="0" c_width="6" c_height="6" title="GND" c_shape="ELLIPSE"><ellipse cx="4155.51" cy="3204.01" rx="3" ry="3" stroke-width="0" /><circle cx="4155.51" cy="3204.01" r="1.5" stroke-width="0" /></g><g c_partid="part_pad" c_etype="pinpart" c_origin="4105.51,3204.01" layerid="11" number="8" net="U2_8" plated ="Y" c_shapetype="group" id="gge151" c_rotation="0" c_width="6" c_height="6" title="U2_8" c_shape="ELLIPSE"><ellipse cx="4105.51" cy="3204.01" rx="3" ry="3" stroke-width="0" /><circle cx="4105.51" cy="3204.01" r="1.5" stroke-width="0" /></g><g c_partid="part_pad" c_etype="pinpart" c_origin="4105.51,3194.01" layerid="11" number="7" net="U2_7" plated ="Y" c_shapetype="group" id="gge154" c_rotation="0" c_width="6" c_height="6" title="U2_7" c_shape="ELLIPSE"><ellipse cx="4105.51" cy="3194.01" rx="3" ry="3" stroke-width="0" /><circle cx="4105.51" cy="3194.01" r="1.5" stroke-width="0" /></g><g c_partid="part_pad" c_etype="pinpart" c_origin="4105.51,3184.01" layerid="11" number="6" net="U2_6" plated ="Y" c_shapetype="group" id="gge157" c_rotation="0" c_width="6" c_height="6" title="U2_6" c_shape="ELLIPSE"><ellipse cx="4105.51" cy="3184.01" rx="3" ry="3" stroke-width="0" /><circle cx="4105.51" cy="3184.01" r="1.5" stroke-width="0" /></g><g c_partid="part_pad" c_etype="pinpart" c_origin="4105.51,3174.01" layerid="11" number="5" net="U2_5" plated ="Y" c_shapetype="group" id="gge160" c_rotation="0" c_width="6" c_height="6" title="U2_5" c_shape="ELLIPSE"><ellipse cx="4105.51" cy="3174.01" rx="3" ry="3" stroke-width="0" /><circle cx="4105.51" cy="3174.01" r="1.5" stroke-width="0" /></g><g c_partid="part_pad" c_etype="pinpart" c_origin="4105.51,3164.01" layerid="11" number="4" net="U2_4" plated ="Y" c_shapetype="group" id="gge163" c_rotation="0" c_width="6" c_height="6" title="U2_4" c_shape="ELLIPSE"><ellipse cx="4105.51" cy="3164.01" rx="3" ry="3" stroke-width="0" /><circle cx="4105.51" cy="3164.01" r="1.5" stroke-width="0" /></g><g c_partid="part_pad" c_etype="pinpart" c_origin="4105.51,3154.01" layerid="11" number="3" net="U2_3" plated ="Y" c_shapetype="group" id="gge166" c_rotation="0" c_width="6" c_height="6" title="U2_3" c_shape="ELLIPSE"><ellipse cx="4105.51" cy="3154.01" rx="3" ry="3" stroke-width="0" /><circle cx="4105.51" cy="3154.01" r="1.5" stroke-width="0" /></g><g c_partid="part_pad" c_etype="pinpart" c_origin="4105.51,3144.01" layerid="11" number="2" net="U2_2" plated ="Y" c_shapetype="group" id="gge169" c_rotation="0" c_width="6" c_height="6" title="U2_2" c_shape="ELLIPSE"><ellipse cx="4105.51" cy="3144.01" rx="3" ry="3" stroke-width="0" /><circle cx="4105.51" cy="3144.01" r="1.5" stroke-width="0" /></g><g c_partid="part_pad" c_etype="pinpart" c_origin="4105.51,3134.01" layerid="11" number="1" net="U2_1" plated ="Y" c_shapetype="group" id="gge172" c_rotation="0" c_width="6" c_height="6" title="U2_1" c_shape="ELLIPSE"><ellipse cx="4105.51" cy="3134.01" rx="3" ry="3" stroke-width="0" /><circle cx="4105.51" cy="3134.01" r="1.5" stroke-width="0" /></g></g><g xmlns="http://www.w3.org/2000/svg" c_origin="4129.9997,3139.9997" c_para="package`RAD-0.1" c_partid="part_import_gge213" id="gge213" c_shapetype="group" c_etype="pinpart" layerid="1" c_rotation="90"><g c_partid="part_pad" c_etype="pinpart" c_origin="4129.3,3144.1" layerid="11" number="1" net="GND" plated ="Y" c_shapetype="group" id="gge218" c_rotation="90" c_width="5.9055" c_height="5.9055" title="GND" c_shape="ELLIPSE"><ellipse cx="4129.3" cy="3144.1" rx="2.95275" ry="2.95275" stroke-width="0" /><circle cx="4129.3" cy="3144.1" r="1.378" stroke-width="0" /></g><g c_partid="part_pad" c_etype="pinpart" c_origin="4129.3,3134.1" layerid="11" number="2" net="U2_16" plated ="Y" c_shapetype="group" id="gge221" c_rotation="90" c_width="5.9055" c_height="5.9055" title="U2_16" c_shape="ELLIPSE"><ellipse cx="4129.3" cy="3134.1" rx="2.95275" ry="2.95275" stroke-width="0" /><circle cx="4129.3" cy="3134.1" r="1.378" stroke-width="0" /></g></g><g xmlns="http://www.w3.org/2000/svg" c_origin="4090,3160" c_para="package`RJ11_4P4C" c_partid="part_import_gge225" id="gge225" c_shapetype="group" c_etype="pinpart" layerid="1" c_rotation="270"><g c_partid="part_hole" c_etype="pinpart" c_shapetype="group" c_origin="4062.05,3157.44" layerid="11" id="gge232" ><path d="M4057.05,3152.44L4067.05,3162.44M4057.05,3162.44L4067.05,3152.44" fill="none"  stroke-width="0.8"></path><circle cx="4062.05" cy="3157.44" r="4"   stroke-width="0" /><ellipse cx="4062.05" cy="3157.44" rx="4" ry="4" fill="none" stroke-width="0.5" /></g><g c_partid="part_hole" c_etype="pinpart" c_shapetype="group" c_origin="4061.85,3201.34" layerid="11" id="gge236" ><path d="M4056.85,3196.34L4066.85,3206.34M4056.85,3206.34L4066.85,3196.34" fill="none"  stroke-width="0.8"></path><circle cx="4061.85" cy="3201.34" r="4"   stroke-width="0" /><ellipse cx="4061.85" cy="3201.34" rx="4" ry="4" fill="none" stroke-width="0.5" /></g><g c_partid="part_pad" c_etype="pinpart" c_origin="4081.93,3181.01" layerid="11" number="2" net="U2_7" plated ="Y" c_shapetype="group" id="gge240" c_rotation="270" c_width="6" c_height="6" title="U2_7" c_shape="ELLIPSE"><ellipse cx="4081.93" cy="3181.01" rx="3" ry="3" stroke-width="0" /><circle cx="4081.93" cy="3181.01" r="1.8" stroke-width="0" /></g><g c_partid="part_pad" c_etype="pinpart" c_origin="4081.73,3173.34" layerid="11" number="4" net="U2_16" plated ="Y" c_shapetype="group" id="gge243" c_rotation="270" c_width="6" c_height="6" title="U2_16" c_shape="ELLIPSE"><ellipse cx="4081.73" cy="3173.34" rx="3" ry="3" stroke-width="0" /><circle cx="4081.73" cy="3173.34" r="1.8" stroke-width="0" /></g><g c_partid="part_pad" c_etype="pinpart" c_origin="4072.09,3185.05" layerid="11" number="1" net="U2_8" plated ="Y" c_shapetype="group" id="gge246" c_rotation="270" c_width="6" c_height="6" title="U2_8" c_shape="ELLIPSE"><ellipse cx="4072.09" cy="3185.05" rx="3" ry="3" stroke-width="0" /><circle cx="4072.09" cy="3185.05" r="1.8" stroke-width="0" /></g><g c_partid="part_pad" c_etype="pinpart" c_origin="4072.09,3176.98" layerid="11" number="3" net="GND" plated ="Y" c_shapetype="group" id="gge249" c_rotation="270" c_width="6" c_height="6" title="GND" c_shape="ELLIPSE"><ellipse cx="4072.09" cy="3176.98" rx="3" ry="3" stroke-width="0" /><circle cx="4072.09" cy="3176.98" r="1.8" stroke-width="0" /></g></g><g xmlns="http://www.w3.org/2000/svg" c_origin="4210,3190" c_para="package`SWICHING 3-PIN`" c_partid="part_import_gge106" id="gge106" c_shapetype="group" c_etype="pinpart" layerid="1" c_rotation="90"><g c_partid="part_pad" c_etype="pinpart" c_origin="4210,3180" layerid="11" number="1" net="GND" plated ="Y" c_shapetype="group" id="gge112" c_rotation="90" c_width="6" c_height="6" title="GND" c_shape="ELLIPSE"><ellipse cx="4210" cy="3180" rx="3" ry="3" stroke-width="0" /><circle cx="4210" cy="3180" r="1.8" stroke-width="0" /></g><g c_partid="part_pad" c_etype="pinpart" c_origin="4210,3170" layerid="11" number="2" net="U2_1" plated ="Y" c_shapetype="group" id="gge115" c_rotation="90" c_width="6" c_height="6" title="U2_1" c_shape="ELLIPSE"><ellipse cx="4210" cy="3170" rx="3" ry="3" stroke-width="0" /><circle cx="4210" cy="3170" r="1.8" stroke-width="0" /></g><g c_partid="part_pad" c_etype="pinpart" c_origin="4210,3160" layerid="11" number="3" net="U2_10" plated ="Y" c_shapetype="group" id="gge118" c_rotation="90" c_width="6" c_height="6" title="U2_10" c_shape="ELLIPSE"><ellipse cx="4210" cy="3160" rx="3" ry="3" stroke-width="0" /><circle cx="4210" cy="3160" r="1.8" stroke-width="0" /></g></g><g xmlns="http://www.w3.org/2000/svg" c_origin="4180,3130" c_para="package`LED-3MM/2.54`" c_partid="part_import_gge42" id="gge42" c_shapetype="group" c_etype="pinpart" layerid="1" c_rotation="270"><g c_partid="part_pad" c_etype="pinpart" c_origin="4179.62,3130" layerid="11" number="1" net="LED1_1" plated ="Y" c_shapetype="group" id="gge49" c_rotation="0" c_width="6.5" c_height="6.5" title="LED1_1" c_shape="ELLIPSE"><ellipse cx="4179.62" cy="3130" rx="3.25" ry="3.25" stroke-width="0" /><circle cx="4179.62" cy="3130" r="1.7717" stroke-width="0" /></g><g c_partid="part_pad" c_etype="pinpart" c_origin="4169.62,3130" layerid="11" number="2" net="U2_1" plated ="Y" c_shapetype="group" id="gge52" c_rotation="0" c_width="6.5" c_height="6.5" title="U2_1" c_shape="ELLIPSE"><ellipse cx="4169.62" cy="3130" rx="3.25" ry="3.25" stroke-width="0" /><circle cx="4169.62" cy="3130" r="1.7717" stroke-width="0" /></g></g><g xmlns="http://www.w3.org/2000/svg" c_origin="4180,3210" c_para="package`LED-3MM/2.54`" c_partid="part_import_gge55" id="gge55" c_shapetype="group" c_etype="pinpart" layerid="1" c_rotation="270"><g c_partid="part_pad" c_etype="pinpart" c_origin="4179.62,3210" layerid="11" number="1" net="LED2_1" plated ="Y" c_shapetype="group" id="gge62" c_rotation="0" c_width="6.5" c_height="6.5" title="LED2_1" c_shape="ELLIPSE"><ellipse cx="4179.62" cy="3210" rx="3.25" ry="3.25" stroke-width="0" /><circle cx="4179.62" cy="3210" r="1.7717" stroke-width="0" /></g><g c_partid="part_pad" c_etype="pinpart" c_origin="4169.62,3210" layerid="11" number="2" net="GND" plated ="Y" c_shapetype="group" id="gge65" c_rotation="0" c_width="6.5" c_height="6.5" title="GND" c_shape="ELLIPSE"><ellipse cx="4169.62" cy="3210" rx="3.25" ry="3.25" stroke-width="0" /><circle cx="4169.62" cy="3210" r="1.7717" stroke-width="0" /></g></g><g xmlns="http://www.w3.org/2000/svg" c_origin="4080,3140" c_para="package`SOT223" c_partid="part_import_gge252" id="gge252" c_shapetype="group" c_etype="pinpart" layerid="2" c_rotation="180"><g c_partid="part_pad" c_etype="pinpart" c_origin="4080,3152.7" layerid="2" number="4" net="" plated ="Y" c_shapetype="group" id="gge261" c_rotation="180" c_width="13.8" c_height="8.5" title="" c_shape="RECT"><polygon points="4073.1 3156.95 4086.9 3156.95 4086.9 3148.45 4073.1 3148.45" stroke-width="0" /><circle cx="4080" cy="3152.7" r="0.001" stroke-width="0" /></g><g c_partid="part_pad" c_etype="pinpart" c_origin="4089.1,3128.3" layerid="2" number="3" net="U2_16" plated ="Y" c_shapetype="group" id="gge264" c_rotation="180" c_width="4.3" c_height="8.5" title="U2_16" c_shape="RECT"><polygon points="4086.95 3132.55 4091.25 3132.55 4091.25 3124.05 4086.95 3124.05" stroke-width="0" /><circle cx="4089.1" cy="3128.3" r="0.001" stroke-width="0" /></g><g c_partid="part_pad" c_etype="pinpart" c_origin="4080,3128.3" layerid="2" number="2" net="U2_10" plated ="Y" c_shapetype="group" id="gge267" c_rotation="180" c_width="4.3" c_height="8.5" title="U2_10" c_shape="RECT"><polygon points="4077.85 3132.55 4082.15 3132.55 4082.15 3124.05 4077.85 3124.05" stroke-width="0" /><circle cx="4080" cy="3128.3" r="0.001" stroke-width="0" /></g><g c_partid="part_pad" c_etype="pinpart" c_origin="4070.9,3128.3" layerid="2" number="1" net="GND" plated ="Y" c_shapetype="group" id="gge270" c_rotation="180" c_width="4.3" c_height="8.5" title="GND" c_shape="RECT"><polygon points="4068.75 3132.55 4073.05 3132.55 4073.05 3124.05 4068.75 3124.05" stroke-width="0" /><circle cx="4070.9" cy="3128.3" r="0.001" stroke-width="0" /></g></g><polyline points="4050 3120 4220 3120 4220 3220 4051 3220 4050 3120" stroke-width="1" c_shapetype="line" stroke-linecap="round" fill="none" layerid="10" net="" id="gge274" /><g c_partid="part_hole" c_etype="pinpart" c_shapetype="group" c_origin="4055,3125" layerid="11" id="gge301" ><path d="M4050,3120L4060,3130M4050,3130L4060,3120" fill="none"  stroke-width="0.8"></path><circle cx="4055" cy="3125" r="4"   stroke-width="0" /><ellipse cx="4055" cy="3125" rx="4" ry="4" fill="none" stroke-width="0.5" /></g><g c_partid="part_hole" c_etype="pinpart" c_shapetype="group" c_origin="4056,3215" layerid="11" id="gge305" ><path d="M4051,3210L4061,3220M4051,3220L4061,3210" fill="none"  stroke-width="0.8"></path><circle cx="4056" cy="3215" r="4"   stroke-width="0" /><ellipse cx="4056" cy="3215" rx="4" ry="4" fill="none" stroke-width="0.5" /></g><g c_partid="part_hole" c_etype="pinpart" c_shapetype="group" c_origin="4215,3125" layerid="11" id="gge309" ><path d="M4210,3120L4220,3130M4210,3130L4220,3120" fill="none"  stroke-width="0.8"></path><circle cx="4215" cy="3125" r="4"   stroke-width="0" /><ellipse cx="4215" cy="3125" rx="4" ry="4" fill="none" stroke-width="0.5" /></g><g c_partid="part_hole" c_etype="pinpart" c_shapetype="group" c_origin="4215.01,3215.01" layerid="11" id="gge313" ><path d="M4210.01,3210.01L4220.01,3220.01M4210.01,3220.01L4220.01,3210.01" fill="none"  stroke-width="0.8"></path><circle cx="4215.01" cy="3215.01" r="4"   stroke-width="0" /><ellipse cx="4215.01" cy="3215.01" rx="4" ry="4" fill="none" stroke-width="0.5" /></g></g></svg>